<?xml version="1.0" encoding="utf-8"?>
<!-- Generator: Adobe Illustrator 23.0.4, SVG Export Plug-In . SVG Version: 6.00 Build 0)  -->
<svg version="1.1" id="Layer_1" xmlns="http://www.w3.org/2000/svg" xmlns:xlink="http://www.w3.org/1999/xlink" x="0px" y="0px"
	 viewBox="0 0 768 346" style="enable-background:new 0 0 768 346;" xml:space="preserve">
<style type="text/css">
	.st0{fill:#0B3051;stroke:#E1E1E1;stroke-width:3;stroke-miterlimit:10;}
	.st1{fill:#89AED1;stroke:#0B3051;stroke-miterlimit:10;}
	.st2{fill:url(#SVGID_1_);stroke:#0B3051;stroke-miterlimit:10;}
	.st3{fill:#E1E1E1;}
	.st4{fill:#B3B3B3;}
	.st5{fill:none;stroke:#FFFFFF;stroke-miterlimit:10;}
	.st6{fill:none;stroke:#FFFFFF;stroke-miterlimit:10;stroke-dasharray:3.94,1.97;}
	.st7{fill:#B1CAE1;stroke:#FFFFFF;stroke-miterlimit:10;}
	.st8{fill:none;stroke:#FFFFFF;stroke-width:3;stroke-linecap:round;}
	.st9{fill:none;stroke:#FFFFFF;}
	.st10{clip-path:url(#SVGID_3_);}
	.st11{opacity:0.99;fill:none;stroke:#FFFFFF;stroke-miterlimit:10;enable-background:new    ;}
	.st12{opacity:0.98;fill:none;stroke:#FFFFFF;stroke-miterlimit:10;enable-background:new    ;}
	.st13{opacity:0.97;fill:none;stroke:#FFFFFF;stroke-miterlimit:10;enable-background:new    ;}
	.st14{opacity:0.96;fill:none;stroke:#FFFFFF;stroke-miterlimit:10;enable-background:new    ;}
	.st15{opacity:0.95;fill:none;stroke:#FFFFFF;stroke-miterlimit:10;enable-background:new    ;}
	.st16{opacity:0.94;fill:none;stroke:#FFFFFF;stroke-miterlimit:10;enable-background:new    ;}
	.st17{opacity:0.93;fill:none;stroke:#FFFFFF;stroke-miterlimit:10;enable-background:new    ;}
	.st18{opacity:0.92;fill:none;stroke:#FFFFFF;stroke-miterlimit:10;enable-background:new    ;}
	.st19{opacity:0.91;fill:none;stroke:#FFFFFF;stroke-miterlimit:10;enable-background:new    ;}
	.st20{opacity:0.9;fill:none;stroke:#FFFFFF;stroke-miterlimit:10;enable-background:new    ;}
	.st21{opacity:0.89;fill:none;stroke:#FFFFFF;stroke-miterlimit:10;enable-background:new    ;}
	.st22{opacity:0.88;fill:none;stroke:#FFFFFF;stroke-miterlimit:10;enable-background:new    ;}
	.st23{opacity:0.87;fill:none;stroke:#FFFFFF;stroke-miterlimit:10;enable-background:new    ;}
	.st24{opacity:0.86;fill:none;stroke:#FFFFFF;stroke-miterlimit:10;enable-background:new    ;}
	.st25{opacity:0.85;fill:none;stroke:#FFFFFF;stroke-miterlimit:10;enable-background:new    ;}
	.st26{opacity:0.84;fill:none;stroke:#FFFFFF;stroke-miterlimit:10;enable-background:new    ;}
	.st27{opacity:0.83;fill:none;stroke:#FFFFFF;stroke-miterlimit:10;enable-background:new    ;}
	.st28{opacity:0.82;fill:none;stroke:#FFFFFF;stroke-miterlimit:10;enable-background:new    ;}
	.st29{opacity:0.81;fill:none;stroke:#FFFFFF;stroke-miterlimit:10;enable-background:new    ;}
	.st30{opacity:0.8;fill:none;stroke:#FFFFFF;stroke-miterlimit:10;enable-background:new    ;}
	.st31{opacity:0.79;fill:none;stroke:#FFFFFF;stroke-miterlimit:10;enable-background:new    ;}
	.st32{opacity:0.78;fill:none;stroke:#FFFFFF;stroke-miterlimit:10;enable-background:new    ;}
	.st33{opacity:0.77;fill:none;stroke:#FFFFFF;stroke-miterlimit:10;enable-background:new    ;}
	.st34{opacity:0.76;fill:none;stroke:#FFFFFF;stroke-miterlimit:10;enable-background:new    ;}
	.st35{opacity:0.75;fill:none;stroke:#FFFFFF;stroke-miterlimit:10;enable-background:new    ;}
	.st36{opacity:0.74;fill:none;stroke:#FFFFFF;stroke-miterlimit:10;enable-background:new    ;}
	.st37{opacity:0.73;fill:none;stroke:#FFFFFF;stroke-miterlimit:10;enable-background:new    ;}
	.st38{opacity:0.72;fill:none;stroke:#FFFFFF;stroke-miterlimit:10;enable-background:new    ;}
	.st39{opacity:0.71;fill:none;stroke:#FFFFFF;stroke-miterlimit:10;enable-background:new    ;}
	.st40{opacity:0.7;fill:none;stroke:#FFFFFF;stroke-miterlimit:10;enable-background:new    ;}
	.st41{opacity:0.69;fill:none;stroke:#FFFFFF;stroke-miterlimit:10;enable-background:new    ;}
	.st42{opacity:0.68;fill:none;stroke:#FFFFFF;stroke-miterlimit:10;enable-background:new    ;}
	.st43{opacity:0.67;fill:none;stroke:#FFFFFF;stroke-miterlimit:10;enable-background:new    ;}
	.st44{opacity:0.66;fill:none;stroke:#FFFFFF;stroke-miterlimit:10;enable-background:new    ;}
	.st45{opacity:0.65;fill:none;stroke:#FFFFFF;stroke-miterlimit:10;enable-background:new    ;}
	.st46{opacity:0.64;fill:none;stroke:#FFFFFF;stroke-miterlimit:10;enable-background:new    ;}
	.st47{opacity:0.63;fill:none;stroke:#FFFFFF;stroke-miterlimit:10;enable-background:new    ;}
	.st48{opacity:0.62;fill:none;stroke:#FFFFFF;stroke-miterlimit:10;enable-background:new    ;}
	.st49{opacity:0.61;fill:none;stroke:#FFFFFF;stroke-miterlimit:10;enable-background:new    ;}
	.st50{opacity:0.6;fill:none;stroke:#FFFFFF;stroke-miterlimit:10;enable-background:new    ;}
	.st51{opacity:0.59;fill:none;stroke:#FFFFFF;stroke-miterlimit:10;enable-background:new    ;}
	.st52{opacity:0.58;fill:none;stroke:#FFFFFF;stroke-miterlimit:10;enable-background:new    ;}
	.st53{opacity:0.57;fill:none;stroke:#FFFFFF;stroke-miterlimit:10;enable-background:new    ;}
	.st54{opacity:0.56;fill:none;stroke:#FFFFFF;stroke-miterlimit:10;enable-background:new    ;}
	.st55{opacity:0.55;fill:none;stroke:#FFFFFF;stroke-miterlimit:10;enable-background:new    ;}
	.st56{opacity:0.54;fill:none;stroke:#FFFFFF;stroke-miterlimit:10;enable-background:new    ;}
	.st57{opacity:0.53;fill:none;stroke:#FFFFFF;stroke-miterlimit:10;enable-background:new    ;}
	.st58{opacity:0.52;fill:none;stroke:#FFFFFF;stroke-miterlimit:10;enable-background:new    ;}
	.st59{opacity:0.51;fill:none;stroke:#FFFFFF;stroke-miterlimit:10;enable-background:new    ;}
	.st60{opacity:0.5;fill:none;stroke:#FFFFFF;stroke-miterlimit:10;enable-background:new    ;}
	.st61{opacity:0.49;fill:none;stroke:#FFFFFF;stroke-miterlimit:10;enable-background:new    ;}
	.st62{opacity:0.48;fill:none;stroke:#FFFFFF;stroke-miterlimit:10;enable-background:new    ;}
	.st63{opacity:0.47;fill:none;stroke:#FFFFFF;stroke-miterlimit:10;enable-background:new    ;}
	.st64{opacity:0.46;fill:none;stroke:#FFFFFF;stroke-miterlimit:10;enable-background:new    ;}
	.st65{opacity:0.45;fill:none;stroke:#FFFFFF;stroke-miterlimit:10;enable-background:new    ;}
	.st66{opacity:0.44;fill:none;stroke:#FFFFFF;stroke-miterlimit:10;enable-background:new    ;}
	.st67{opacity:0.43;fill:none;stroke:#FFFFFF;stroke-miterlimit:10;enable-background:new    ;}
	.st68{opacity:0.42;fill:none;stroke:#FFFFFF;stroke-miterlimit:10;enable-background:new    ;}
	.st69{opacity:0.41;fill:none;stroke:#FFFFFF;stroke-miterlimit:10;enable-background:new    ;}
	.st70{opacity:0.4;fill:none;stroke:#FFFFFF;stroke-miterlimit:10;enable-background:new    ;}
	.st71{opacity:0.39;fill:none;stroke:#FFFFFF;stroke-miterlimit:10;enable-background:new    ;}
	.st72{opacity:0.38;fill:none;stroke:#FFFFFF;stroke-miterlimit:10;enable-background:new    ;}
	.st73{opacity:0.37;fill:none;stroke:#FFFFFF;stroke-miterlimit:10;enable-background:new    ;}
	.st74{opacity:0.36;fill:none;stroke:#FFFFFF;stroke-miterlimit:10;enable-background:new    ;}
	.st75{opacity:0.35;fill:none;stroke:#FFFFFF;stroke-miterlimit:10;enable-background:new    ;}
	.st76{opacity:0.34;fill:none;stroke:#FFFFFF;stroke-miterlimit:10;enable-background:new    ;}
	.st77{opacity:0.33;fill:none;stroke:#FFFFFF;stroke-miterlimit:10;enable-background:new    ;}
	.st78{opacity:0.32;fill:none;stroke:#FFFFFF;stroke-miterlimit:10;enable-background:new    ;}
	.st79{opacity:0.31;fill:none;stroke:#FFFFFF;stroke-miterlimit:10;enable-background:new    ;}
	.st80{opacity:0.3;fill:none;stroke:#FFFFFF;stroke-miterlimit:10;enable-background:new    ;}
	.st81{opacity:0.29;fill:none;stroke:#FFFFFF;stroke-miterlimit:10;enable-background:new    ;}
	.st82{opacity:0.28;fill:none;stroke:#FFFFFF;stroke-miterlimit:10;enable-background:new    ;}
	.st83{opacity:0.27;fill:none;stroke:#FFFFFF;stroke-miterlimit:10;enable-background:new    ;}
	.st84{opacity:0.26;fill:none;stroke:#FFFFFF;stroke-miterlimit:10;enable-background:new    ;}
	.st85{opacity:0.25;fill:none;stroke:#FFFFFF;stroke-miterlimit:10;enable-background:new    ;}
	.st86{opacity:0.24;fill:none;stroke:#FFFFFF;stroke-miterlimit:10;enable-background:new    ;}
	.st87{opacity:0.23;fill:none;stroke:#FFFFFF;stroke-miterlimit:10;enable-background:new    ;}
	.st88{opacity:0.22;fill:none;stroke:#FFFFFF;stroke-miterlimit:10;enable-background:new    ;}
	.st89{opacity:0.21;fill:none;stroke:#FFFFFF;stroke-miterlimit:10;enable-background:new    ;}
	.st90{opacity:0.2;fill:none;stroke:#FFFFFF;stroke-miterlimit:10;enable-background:new    ;}
	.st91{opacity:0.19;fill:none;stroke:#FFFFFF;stroke-miterlimit:10;enable-background:new    ;}
	.st92{opacity:0.18;fill:none;stroke:#FFFFFF;stroke-miterlimit:10;enable-background:new    ;}
	.st93{opacity:0.17;fill:none;stroke:#FFFFFF;stroke-miterlimit:10;enable-background:new    ;}
	.st94{opacity:0.16;fill:none;stroke:#FFFFFF;stroke-miterlimit:10;enable-background:new    ;}
	.st95{opacity:0.15;fill:none;stroke:#FFFFFF;stroke-miterlimit:10;enable-background:new    ;}
	.st96{opacity:0.14;fill:none;stroke:#FFFFFF;stroke-miterlimit:10;enable-background:new    ;}
	.st97{opacity:0.13;fill:none;stroke:#FFFFFF;stroke-miterlimit:10;enable-background:new    ;}
	.st98{opacity:0.12;fill:none;stroke:#FFFFFF;stroke-miterlimit:10;enable-background:new    ;}
	.st99{opacity:0.11;fill:none;stroke:#FFFFFF;stroke-miterlimit:10;enable-background:new    ;}
	.st100{opacity:0.1;fill:none;stroke:#FFFFFF;stroke-miterlimit:10;enable-background:new    ;}
	.st101{opacity:9.000000e-02;fill:none;stroke:#FFFFFF;stroke-miterlimit:10;enable-background:new    ;}
	.st102{opacity:8.000000e-02;fill:none;stroke:#FFFFFF;stroke-miterlimit:10;enable-background:new    ;}
	.st103{opacity:7.000000e-02;fill:none;stroke:#FFFFFF;stroke-miterlimit:10;enable-background:new    ;}
	.st104{opacity:6.000000e-02;fill:none;stroke:#FFFFFF;stroke-miterlimit:10;enable-background:new    ;}
	.st105{opacity:5.000000e-02;fill:none;stroke:#FFFFFF;stroke-miterlimit:10;enable-background:new    ;}
	.st106{opacity:4.000000e-02;fill:none;stroke:#FFFFFF;stroke-miterlimit:10;enable-background:new    ;}
	.st107{opacity:3.000000e-02;fill:none;stroke:#FFFFFF;stroke-miterlimit:10;enable-background:new    ;}
	.st108{opacity:2.000000e-02;fill:none;stroke:#FFFFFF;stroke-miterlimit:10;enable-background:new    ;}
	.st109{opacity:1.000000e-02;fill:none;stroke:#FFFFFF;stroke-miterlimit:10;enable-background:new    ;}
	.st110{fill:none;stroke:#FFFFFF;stroke-miterlimit:10;stroke-opacity:0;}
	.st111{fill:#67B2EC;}
	.st112{fill:#5AAEF9;stroke:#FFFFFF;stroke-miterlimit:10;}
	.st113{fill:#FFFFFF;}
	.st114{fill:none;stroke:#FFFFFF;stroke-miterlimit:10;stroke-dasharray:4.05,2.03;}
	.st115{fill:#67B2EC;stroke:#FFFFFF;stroke-miterlimit:10;}
	.st116{fill:none;stroke:#FFFFFF;stroke-linecap:round;stroke-miterlimit:10;}
	.st117{opacity:0.7;fill:#67B2EC;enable-background:new    ;}
	.st118{clip-path:url(#SVGID_5_);}
	.st119{fill:none;stroke:#FFFFFF;stroke-miterlimit:10;stroke-dasharray:4.01,2.01;}
	.st120{fill:none;stroke:#FFFFFF;stroke-miterlimit:10;stroke-dasharray:4.02,2.01;}
	.st121{fill:none;stroke:#FFFFFF;stroke-miterlimit:10;stroke-dasharray:4,2;}
	.st122{fill:#B4D9F5;}
	.st123{fill:none;stroke:#FFFFFF;stroke-miterlimit:10;stroke-dasharray:4,1;}
</style>
<title>macOSHIG_Hero_Final</title>
<g id="MBP-clamShell">
	<path class="st0" d="M157,3h456c8.8,0,16,7.1,16,15.9v306.2c0,8.8-7.2,15.9-16,15.9H157c-8.8,0-16-7.1-16-15.9V322v-303
		C141,10.1,148.2,3,157,3"/>
	<polygon class="st1" points="159.4,26.4 159.4,309.4 610.4,309.4 610.4,26.4 	"/>
	
		<linearGradient id="SVGID_1_" gradientUnits="userSpaceOnUse" x1="385" y1="93.93" x2="385" y2="298.16" gradientTransform="matrix(1 0 0 -1 0 348)">
		<stop  offset="0" style="stop-color:#0982FE"/>
		<stop  offset="1" style="stop-color:#3CA1D2"/>
	</linearGradient>
	<polygon class="st2" points="159,26 159,310 611,310 611,26 	"/>
</g>
<g id="MBP-base">
	<path class="st3" d="M650.9,346c13.6,0,26.1-6.5,26.1-6.5V328H91v11.5c0,0,12.5,6.5,26.1,6.5H650.9z"/>
	<path class="st4" d="M433,328c0,0.7-0.1,1.3-0.2,2c-0.8,4.6-4.4,8-8.6,8h-79.4c-4.3,0-7.8-3.4-8.6-8c-0.1-0.7-0.2-1.3-0.2-2"/>
</g>
<g id="spec-2">
	<line class="st5" x1="589" y1="223.5" x2="587" y2="223.5"/>
	<line class="st6" x1="585" y1="223.5" x2="462" y2="223.5"/>
	<line class="st5" x1="461" y1="223.5" x2="459" y2="223.5"/>
	<circle class="st5" cx="476.7" cy="92.1" r="3.6"/>
	<circle class="st5" cx="487.8" cy="92.1" r="3.6"/>
	<circle class="st5" cx="498.9" cy="92.1" r="3.6"/>
	<line class="st5" x1="466.2" y1="117.2" x2="582.2" y2="117.2"/>
	<path class="st7" d="M476.3,201.4h10.5c1.7,0,3.2,1.4,3.2,3.2v10.5c0,1.7-1.4,3.2-3.2,3.2h-10.5c-1.7,0-3.2-1.4-3.2-3.2v-10.5
		C473.1,202.8,474.5,201.4,476.3,201.4z"/>
	<path class="st5" d="M476.4,100.2h8.1c1.3,0,2.3,1,2.3,2.3v8c0,1.3-1,2.3-2.3,2.3h-8.1c-1.3,0-2.3-1-2.3-2.3v-8
		C474.1,101.2,475.2,100.2,476.4,100.2z"/>
	<path class="st5" d="M491.2,100.2h8.1c1.3,0,2.3,1,2.3,2.3v8c0,1.3-1,2.3-2.3,2.3h-8.1c-1.3,0-2.3-1-2.3-2.3v-8
		C488.9,101.2,489.9,100.2,491.2,100.2z"/>
	<path class="st5" d="M506,100.2h8.1c1.3,0,2.3,1,2.3,2.3v8c0,1.3-1,2.3-2.3,2.3H506c-1.3,0-2.3-1-2.3-2.3v-8
		C503.7,101.2,504.7,100.2,506,100.2z"/>
	<path class="st5" d="M520.7,100.2h8.1c1.3,0,2.3,1,2.3,2.3v8c0,1.3-1,2.3-2.3,2.3h-8.1c-1.3,0-2.3-1-2.3-2.3v-8
		C518.4,101.2,519.5,100.2,520.7,100.2z"/>
	<line class="st8" x1="474.8" y1="179.7" x2="576.5" y2="179.7"/>
	<path class="st7" d="M519.3,181.6l-2.9,2.9c-0.3,0.3-0.8,0.3-1.1,0c0,0,0,0,0,0l-2.9-2.9c-0.6-0.7-1-1.5-1-2.4v-2.7
		c0-0.8,0.6-1.4,1.4-1.4h6.1c0.8,0,1.4,0.6,1.4,1.4v2.7C520.3,180,520,180.9,519.3,181.6z"/>
	<line class="st9" x1="478.1" y1="184.8" x2="478.1" y2="187"/>
	<line class="st9" x1="501.6" y1="185" x2="501.6" y2="187.3"/>
	<line class="st9" x1="525.6" y1="185" x2="525.6" y2="187.3"/>
	<line class="st9" x1="549.1" y1="185" x2="549.1" y2="187.3"/>
	<line class="st9" x1="572.6" y1="185" x2="572.6" y2="187.3"/>
	<g>
		<defs>
			<rect id="SVGID_2_" x="465.8" y="117.9" width="115.9" height="47"/>
		</defs>
		<clipPath id="SVGID_3_">
			<use xlink:href="#SVGID_2_"  style="overflow:visible;"/>
		</clipPath>
		<g class="st10">
			<line class="st5" x1="98.4" y1="275" x2="435.5" y2="-62.1"/>
			<line class="st11" x1="101.9" y1="275.3" x2="439" y2="-61.8"/>
			<line class="st12" x1="105.4" y1="275.5" x2="442.5" y2="-61.6"/>
			<line class="st13" x1="108.9" y1="275.8" x2="446" y2="-61.4"/>
			<line class="st14" x1="112.4" y1="276" x2="449.5" y2="-61.1"/>
			<line class="st15" x1="115.9" y1="276.2" x2="453" y2="-60.9"/>
			<line class="st16" x1="119.4" y1="276.5" x2="456.5" y2="-60.7"/>
			<line class="st17" x1="122.9" y1="276.7" x2="460" y2="-60.4"/>
			<line class="st18" x1="126.4" y1="276.9" x2="463.5" y2="-60.2"/>
			<line class="st19" x1="129.9" y1="277.2" x2="467.1" y2="-60"/>
			<line class="st20" x1="133.5" y1="277.4" x2="470.6" y2="-59.7"/>
			<line class="st21" x1="137" y1="277.6" x2="474.1" y2="-59.5"/>
			<line class="st22" x1="140.5" y1="277.9" x2="477.6" y2="-59.2"/>
			<line class="st23" x1="144" y1="278.1" x2="481.1" y2="-59"/>
			<line class="st24" x1="147.5" y1="278.3" x2="484.6" y2="-58.8"/>
			<line class="st25" x1="151" y1="278.6" x2="488.1" y2="-58.5"/>
			<line class="st26" x1="154.5" y1="278.8" x2="491.6" y2="-58.3"/>
			<line class="st27" x1="158" y1="279" x2="495.1" y2="-58.1"/>
			<line class="st28" x1="161.5" y1="279.3" x2="498.6" y2="-57.8"/>
			<line class="st29" x1="165" y1="279.5" x2="502.1" y2="-57.6"/>
			<line class="st30" x1="168.5" y1="279.7" x2="505.6" y2="-57.4"/>
			<line class="st31" x1="172" y1="280" x2="509.1" y2="-57.2"/>
			<line class="st32" x1="175.6" y1="280.2" x2="512.7" y2="-56.9"/>
			<line class="st33" x1="179.1" y1="280.4" x2="516.2" y2="-56.7"/>
			<line class="st34" x1="182.6" y1="280.7" x2="519.7" y2="-56.5"/>
			<line class="st35" x1="186.1" y1="280.9" x2="523.2" y2="-56.2"/>
			<line class="st36" x1="189.6" y1="281.1" x2="526.7" y2="-56"/>
			<line class="st37" x1="193.1" y1="281.4" x2="530.2" y2="-55.8"/>
			<line class="st38" x1="196.6" y1="281.6" x2="533.7" y2="-55.5"/>
			<line class="st39" x1="200.1" y1="281.8" x2="537.2" y2="-55.3"/>
			<line class="st40" x1="203.6" y1="282.1" x2="540.7" y2="-55"/>
			<line class="st41" x1="207.1" y1="282.3" x2="544.2" y2="-54.8"/>
			<line class="st42" x1="210.6" y1="282.5" x2="547.7" y2="-54.6"/>
			<line class="st43" x1="214.1" y1="282.8" x2="551.2" y2="-54.3"/>
			<line class="st44" x1="217.6" y1="283" x2="554.8" y2="-54.1"/>
			<line class="st45" x1="221.1" y1="283.2" x2="558.3" y2="-53.9"/>
			<line class="st46" x1="224.7" y1="283.5" x2="561.8" y2="-53.6"/>
			<line class="st47" x1="228.2" y1="283.7" x2="565.3" y2="-53.4"/>
			<line class="st48" x1="231.7" y1="283.9" x2="568.8" y2="-53.2"/>
			<line class="st49" x1="235.2" y1="284.2" x2="572.3" y2="-52.9"/>
			<line class="st50" x1="238.7" y1="284.4" x2="575.8" y2="-52.7"/>
			<line class="st51" x1="242.2" y1="284.6" x2="579.3" y2="-52.5"/>
			<line class="st52" x1="245.7" y1="284.9" x2="582.8" y2="-52.2"/>
			<line class="st53" x1="249.2" y1="285.1" x2="586.3" y2="-52"/>
			<line class="st54" x1="252.7" y1="285.3" x2="589.8" y2="-51.8"/>
			<line class="st55" x1="256.2" y1="285.6" x2="593.3" y2="-51.5"/>
			<line class="st56" x1="259.7" y1="285.8" x2="596.8" y2="-51.3"/>
			<line class="st57" x1="263.2" y1="286" x2="600.4" y2="-51.1"/>
			<line class="st58" x1="266.8" y1="286.3" x2="603.9" y2="-50.8"/>
			<line class="st59" x1="270.3" y1="286.5" x2="607.4" y2="-50.6"/>
			<line class="st60" x1="273.8" y1="286.7" x2="610.9" y2="-50.4"/>
			<line class="st60" x1="277.3" y1="287" x2="614.4" y2="-50.1"/>
			<line class="st61" x1="280.8" y1="287.2" x2="617.9" y2="-49.9"/>
			<line class="st62" x1="284.3" y1="287.4" x2="621.4" y2="-49.7"/>
			<line class="st63" x1="287.8" y1="287.7" x2="624.9" y2="-49.4"/>
			<line class="st64" x1="291.3" y1="287.9" x2="628.4" y2="-49.2"/>
			<line class="st65" x1="294.8" y1="288.1" x2="631.9" y2="-49"/>
			<line class="st66" x1="298.3" y1="288.4" x2="635.4" y2="-48.7"/>
			<line class="st67" x1="301.8" y1="288.6" x2="638.9" y2="-48.5"/>
			<line class="st68" x1="305.3" y1="288.8" x2="642.5" y2="-48.3"/>
			<line class="st69" x1="308.9" y1="289.1" x2="646" y2="-48"/>
			<line class="st70" x1="312.4" y1="289.3" x2="649.5" y2="-47.8"/>
			<line class="st71" x1="315.9" y1="289.5" x2="653" y2="-47.6"/>
			<line class="st72" x1="319.4" y1="289.8" x2="656.5" y2="-47.3"/>
			<line class="st73" x1="322.9" y1="290" x2="660" y2="-47.1"/>
			<line class="st74" x1="326.4" y1="290.2" x2="663.5" y2="-46.9"/>
			<line class="st75" x1="329.9" y1="290.5" x2="667" y2="-46.6"/>
			<line class="st76" x1="333.4" y1="290.7" x2="670.5" y2="-46.4"/>
			<line class="st77" x1="336.9" y1="290.9" x2="674" y2="-46.2"/>
			<line class="st78" x1="340.4" y1="291.2" x2="677.5" y2="-45.9"/>
			<line class="st79" x1="343.9" y1="291.4" x2="681" y2="-45.7"/>
			<line class="st80" x1="347.4" y1="291.6" x2="684.5" y2="-45.5"/>
			<line class="st81" x1="350.9" y1="291.9" x2="688" y2="-45.2"/>
			<line class="st82" x1="354.5" y1="292.1" x2="691.6" y2="-45"/>
			<line class="st83" x1="358" y1="292.3" x2="695.1" y2="-44.8"/>
			<line class="st84" x1="361.5" y1="292.6" x2="698.6" y2="-44.5"/>
			<line class="st85" x1="365" y1="292.8" x2="702.1" y2="-44.3"/>
			<line class="st86" x1="368.5" y1="293" x2="705.6" y2="-44.1"/>
			<line class="st87" x1="372" y1="293.3" x2="709.1" y2="-43.8"/>
			<line class="st88" x1="375.5" y1="293.5" x2="712.6" y2="-43.6"/>
			<line class="st89" x1="379" y1="293.8" x2="716.1" y2="-43.4"/>
			<line class="st90" x1="382.5" y1="294" x2="719.6" y2="-43.1"/>
			<line class="st91" x1="386" y1="294.2" x2="723.1" y2="-42.9"/>
			<line class="st92" x1="389.5" y1="294.5" x2="726.6" y2="-42.7"/>
			<line class="st93" x1="393" y1="294.7" x2="730.1" y2="-42.4"/>
			<line class="st94" x1="396.5" y1="294.9" x2="733.7" y2="-42.2"/>
			<line class="st95" x1="400" y1="295.1" x2="737.2" y2="-42"/>
			<line class="st96" x1="403.6" y1="295.4" x2="740.7" y2="-41.7"/>
			<line class="st97" x1="407.1" y1="295.6" x2="744.2" y2="-41.5"/>
			<line class="st98" x1="410.6" y1="295.9" x2="747.7" y2="-41.3"/>
			<line class="st99" x1="414.1" y1="296.1" x2="751.2" y2="-41"/>
			<line class="st100" x1="417.6" y1="296.3" x2="754.7" y2="-40.8"/>
			<line class="st101" x1="421.1" y1="296.5" x2="758.2" y2="-40.6"/>
			<line class="st102" x1="424.6" y1="296.8" x2="761.7" y2="-40.3"/>
			<line class="st103" x1="428.1" y1="297" x2="765.2" y2="-40.1"/>
			<line class="st104" x1="431.6" y1="297.2" x2="768.7" y2="-39.9"/>
			<line class="st105" x1="435.1" y1="297.5" x2="772.2" y2="-39.6"/>
			<line class="st106" x1="438.6" y1="297.7" x2="775.7" y2="-39.4"/>
			<line class="st107" x1="442.1" y1="298" x2="779.2" y2="-39.2"/>
			<line class="st108" x1="445.6" y1="298.2" x2="782.8" y2="-38.9"/>
			<line class="st109" x1="449.2" y1="298.4" x2="786.3" y2="-38.7"/>
			<line class="st110" x1="452.7" y1="298.6" x2="789.8" y2="-38.5"/>
		</g>
	</g>
	<line class="st5" x1="466.2" y1="164.4" x2="582.2" y2="164.4"/>
	<path class="st5" d="M503.2,201.8h4c0.6,0,1.1,0.5,1.1,1.1v4c0,0.6-0.5,1.1-1.1,1.1h-4c-0.6,0-1.1-0.5-1.1-1.1v-4
		C502.1,202.3,502.6,201.8,503.2,201.8z"/>
	<path class="st5" d="M513,201.8h4c0.6,0,1.2,0.5,1.2,1.1v4c0,0.6-0.5,1.1-1.2,1.1h-4c-0.6,0-1.2-0.5-1.2-1.1v-4
		C511.9,202.3,512.4,201.8,513,201.8z"/>
	<path class="st5" d="M522.8,201.8h4c0.6,0,1.2,0.5,1.2,1.1v4c0,0.6-0.5,1.1-1.2,1.1h-4c-0.6,0-1.2-0.5-1.2-1.1v-4
		C521.7,202.3,522.2,201.8,522.8,201.8z"/>
	<path class="st5" d="M532.6,201.8h4c0.6,0,1.2,0.5,1.2,1.1v4c0,0.6-0.5,1.1-1.2,1.1h-4c-0.6,0-1.2-0.5-1.2-1.1v-4
		C531.5,202.3,532,201.8,532.6,201.8z"/>
	<path class="st5" d="M542.4,201.8h4c0.6,0,1.2,0.5,1.2,1.1v4c0,0.6-0.5,1.1-1.2,1.1h-4c-0.6,0-1.2-0.5-1.2-1.1v-4
		C541.3,202.3,541.8,201.8,542.4,201.8z"/>
	<path class="st5" d="M552.2,201.8h4c0.6,0,1.2,0.5,1.2,1.1v4c0,0.6-0.5,1.1-1.2,1.1h-4c-0.6,0-1.2-0.5-1.2-1.1v-4
		C551,202.3,551.6,201.8,552.2,201.8z"/>
	<path class="st5" d="M562,201.8h4c0.6,0,1.2,0.5,1.2,1.1v4c0,0.6-0.5,1.1-1.2,1.1h-4c-0.6,0-1.2-0.5-1.2-1.1v-4
		C560.8,202.3,561.4,201.8,562,201.8z"/>
	<path class="st5" d="M571.8,201.8h4c0.6,0,1.2,0.5,1.2,1.1v4c0,0.6-0.5,1.1-1.2,1.1h-4c-0.6,0-1.2-0.5-1.2-1.1v-4
		C570.6,202.3,571.2,201.8,571.8,201.8z"/>
	<path class="st5" d="M503.2,211.3h4c0.6,0,1.1,0.5,1.1,1.1v4c0,0.6-0.5,1.1-1.1,1.1h-4c-0.6,0-1.1-0.5-1.1-1.1v-4
		C502.1,211.8,502.6,211.3,503.2,211.3z"/>
	<path class="st5" d="M513,211.3h4c0.6,0,1.2,0.5,1.2,1.1v4c0,0.6-0.5,1.1-1.2,1.1h-4c-0.6,0-1.2-0.5-1.2-1.1v-4
		C511.9,211.8,512.4,211.3,513,211.3z"/>
	<path class="st5" d="M522.8,211.3h4c0.6,0,1.2,0.5,1.2,1.1v4c0,0.6-0.5,1.1-1.2,1.1h-4c-0.6,0-1.2-0.5-1.2-1.1v-4
		C521.7,211.8,522.2,211.3,522.8,211.3z"/>
	<path class="st5" d="M532.6,211.3h4c0.6,0,1.2,0.5,1.2,1.1v4c0,0.6-0.5,1.1-1.2,1.1h-4c-0.6,0-1.2-0.5-1.2-1.1v-4
		C531.5,211.8,532,211.3,532.6,211.3z"/>
	<path class="st5" d="M542.4,211.3h4c0.6,0,1.2,0.5,1.2,1.1v4c0,0.6-0.5,1.1-1.2,1.1h-4c-0.6,0-1.2-0.5-1.2-1.1v-4
		C541.3,211.8,541.8,211.3,542.4,211.3z"/>
	<path class="st5" d="M552.2,211.3h4c0.6,0,1.2,0.5,1.2,1.1v4c0,0.6-0.5,1.1-1.2,1.1h-4c-0.6,0-1.2-0.5-1.2-1.1v-4
		C551,211.8,551.6,211.3,552.2,211.3z"/>
	<path class="st5" d="M562,211.3h4c0.6,0,1.2,0.5,1.2,1.1v4c0,0.6-0.5,1.1-1.2,1.1h-4c-0.6,0-1.2-0.5-1.2-1.1v-4
		C560.8,211.8,561.4,211.3,562,211.3z"/>
	<path class="st5" d="M571.8,211.3h4c0.6,0,1.2,0.5,1.2,1.1v4c0,0.6-0.5,1.1-1.2,1.1h-4c-0.6,0-1.2-0.5-1.2-1.1v-4
		C570.6,211.8,571.2,211.3,571.8,211.3z"/>
	<rect x="466.1" y="83.5" class="st111" width="115" height="33"/>
	<rect x="466" y="163" class="st111" width="115" height="60"/>
	<circle class="st112" cx="476.5" cy="92" r="3.5"/>
	<circle class="st112" cx="487.5" cy="92" r="3.5"/>
	<circle class="st112" cx="498.5" cy="92" r="3.5"/>
	<line class="st5" x1="466.2" y1="117.2" x2="582.2" y2="117.2"/>
	<path class="st112" d="M476.2,199h10.6c1.8,0,3.2,1.4,3.2,3.2v10.6c0,1.8-1.4,3.2-3.2,3.2h-10.6c-1.8,0-3.2-1.4-3.2-3.2v-10.6
		C473,200.4,474.4,199,476.2,199z"/>
	<path class="st5" d="M474.9,100h8.2c1,0,1.9,0.9,1.9,1.9v8.2c0,1-0.9,1.9-1.9,1.9h-8.2c-1,0-1.9-0.9-1.9-1.9v-8.2
		C473,100.9,473.9,100,474.9,100z"/>
	<path class="st5" d="M489.9,100h8.2c1,0,1.9,0.9,1.9,1.9v8.2c0,1-0.9,1.9-1.9,1.9h-8.2c-1,0-1.9-0.9-1.9-1.9v-8.2
		C488,100.9,488.9,100,489.9,100z"/>
	<path class="st5" d="M504.9,100h8.2c1,0,1.9,0.9,1.9,1.9v8.2c0,1-0.9,1.9-1.9,1.9h-8.2c-1,0-1.9-0.9-1.9-1.9v-8.2
		C503,100.9,503.9,100,504.9,100z"/>
	<path class="st5" d="M519.9,100h8.2c1,0,1.9,0.9,1.9,1.9v8.2c0,1-0.9,1.9-1.9,1.9h-8.2c-1,0-1.9-0.9-1.9-1.9v-8.2
		C518,100.9,518.9,100,519.9,100z"/>
	<line class="st8" x1="473" y1="179" x2="575" y2="179"/>
	<path class="st112" d="M518.9,180.6l-2.9,2.9c-0.3,0.3-0.8,0.3-1.1,0c0,0,0,0,0,0l-2.8-2.9c-0.6-0.7-1-1.5-1-2.4v-2.7
		c0-0.8,0.6-1.4,1.4-1.4h6.1c0.8,0,1.4,0.6,1.4,1.4v2.7C519.9,179.1,519.6,179.9,518.9,180.6z"/>
	<line class="st9" x1="476" y1="185" x2="476" y2="188"/>
	<line class="st9" x1="499.6" y1="185" x2="499.6" y2="188"/>
	<line class="st9" x1="524" y1="185" x2="524" y2="188"/>
	<line class="st9" x1="548" y1="185" x2="548" y2="188"/>
	<line class="st9" x1="572" y1="185.1" x2="572" y2="188.1"/>
	<line class="st5" x1="465" y1="163" x2="581" y2="163"/>
	<path class="st5" d="M501.6,200h4c0.6,0,1.1,0.5,1.1,1.1v4c0,0.6-0.5,1.1-1.1,1.1h-4c-0.6,0-1.1-0.5-1.1-1.1v-4
		C500.5,200.5,501,200,501.6,200z"/>
	<path class="st5" d="M511.4,200h4c0.6,0,1.2,0.5,1.2,1.1v4c0,0.6-0.5,1.1-1.2,1.1h-4c-0.6,0-1.1-0.5-1.1-1.1v-4
		C510.3,200.5,510.8,200,511.4,200z"/>
	<path class="st5" d="M521.2,200h4c0.6,0,1.2,0.5,1.2,1.1v4c0,0.6-0.5,1.1-1.2,1.1h-4c-0.6,0-1.2-0.5-1.2-1.1v-4
		C520.1,200.5,520.6,200,521.2,200z"/>
	<path class="st5" d="M531,200h4c0.6,0,1.2,0.5,1.2,1.1v4c0,0.6-0.5,1.1-1.2,1.1h-4c-0.6,0-1.2-0.5-1.2-1.1v-4
		C529.9,200.5,530.4,200,531,200z"/>
	<path class="st5" d="M540.8,200h4c0.6,0,1.2,0.5,1.2,1.1v4c0,0.6-0.5,1.1-1.2,1.1h-4c-0.6,0-1.2-0.5-1.2-1.1v-4
		C539.7,200.5,540.2,200,540.8,200z"/>
	<path class="st5" d="M550.6,200h4c0.6,0,1.2,0.5,1.2,1.1v4c0,0.6-0.5,1.1-1.2,1.1h-4c-0.6,0-1.2-0.5-1.2-1.1v-4
		C549.5,200.5,550,200,550.6,200z"/>
	<path class="st5" d="M560.4,200h4c0.6,0,1.2,0.5,1.2,1.1v4c0,0.6-0.5,1.1-1.2,1.1h-4c-0.6,0-1.2-0.5-1.2-1.1v-4
		C559.2,200.5,559.8,200,560.4,200z"/>
	<path class="st5" d="M570.2,200h4c0.6,0,1.2,0.5,1.2,1.1v4c0,0.6-0.5,1.1-1.2,1.1h-4c-0.6,0-1.2-0.5-1.2-1.1v-4
		C569,200.5,569.6,200,570.2,200z"/>
	<path class="st5" d="M501.6,209.5h4c0.6,0,1.1,0.5,1.1,1.1v4c0,0.6-0.5,1.1-1.1,1.1h-4c-0.6,0-1.1-0.5-1.1-1.1v-4
		C500.5,210,501,209.5,501.6,209.5z"/>
	<path class="st5" d="M511.4,209.5h4c0.6,0,1.2,0.5,1.2,1.1v4c0,0.6-0.5,1.1-1.2,1.1h-4c-0.6,0-1.1-0.5-1.1-1.1v-4
		C510.3,210,510.8,209.5,511.4,209.5z"/>
	<path class="st5" d="M521.2,209.5h4c0.6,0,1.2,0.5,1.2,1.1v4c0,0.6-0.5,1.1-1.2,1.1h-4c-0.6,0-1.2-0.5-1.2-1.1v-4
		C520.1,210,520.6,209.5,521.2,209.5z"/>
	<path class="st5" d="M531,209.5h4c0.6,0,1.2,0.5,1.2,1.1v4c0,0.6-0.5,1.1-1.2,1.1h-4c-0.6,0-1.2-0.5-1.2-1.1v-4
		C529.9,210,530.4,209.5,531,209.5z"/>
	<path class="st5" d="M540.8,209.5h4c0.6,0,1.2,0.5,1.2,1.1v4c0,0.6-0.5,1.1-1.2,1.1h-4c-0.6,0-1.2-0.5-1.2-1.1v-4
		C539.7,210,540.2,209.5,540.8,209.5z"/>
	<path class="st5" d="M550.6,209.5h4c0.6,0,1.2,0.5,1.2,1.1v4c0,0.6-0.5,1.1-1.2,1.1h-4c-0.6,0-1.2-0.5-1.2-1.1v-4
		C549.5,210,550,209.5,550.6,209.5z"/>
	<path class="st5" d="M560.4,209.5h4c0.6,0,1.2,0.5,1.2,1.1v4c0,0.6-0.5,1.1-1.2,1.1h-4c-0.6,0-1.2-0.5-1.2-1.1v-4
		C559.2,210,559.8,209.5,560.4,209.5z"/>
	<path class="st5" d="M570.2,209.5h4c0.6,0,1.2,0.5,1.2,1.1v4c0,0.6-0.5,1.1-1.2,1.1h-4c-0.6,0-1.2-0.5-1.2-1.1v-4
		C569,210,569.6,209.5,570.2,209.5z"/>
	<line class="st5" x1="465.5" y1="227" x2="465.5" y2="241.2"/>
	<line class="st5" x1="581.5" y1="241.2" x2="581.5" y2="227"/>
	<line class="st5" x1="470.4" y1="237.4" x2="576.6" y2="237.4"/>
	<polygon class="st113" points="471.4,238.9 466,237.4 471.4,236 	"/>
	<polygon class="st113" points="575.6,238.9 581,237.4 575.6,236 	"/>
	<line class="st5" x1="465.5" y1="229" x2="465.5" y2="227"/>
	<line class="st114" x1="465.5" y1="225" x2="465.5" y2="80"/>
	<line class="st5" x1="465.5" y1="79" x2="465.5" y2="77"/>
	<line class="st5" x1="581.5" y1="229" x2="581.5" y2="227"/>
	<line class="st114" x1="581.5" y1="225" x2="581.5" y2="80"/>
	<line class="st5" x1="581.5" y1="79" x2="581.5" y2="77"/>
	<line class="st5" x1="589" y1="83" x2="587" y2="83"/>
	<line class="st6" x1="585" y1="83" x2="462" y2="83"/>
	<line class="st5" x1="461" y1="83" x2="459" y2="83"/>
	<path class="st115" d="M473.8,125h100.5c0.7,0,1.2,0.6,1.2,1.2v9.5c0,0.7-0.6,1.2-1.2,1.2H473.8c-0.7,0-1.2-0.6-1.2-1.2v-9.5
		C472.5,125.6,473.1,125,473.8,125z"/>
	<line class="st5" x1="564.5" y1="136.9" x2="564.5" y2="125"/>
	<polyline class="st116" points="568,129.8 569.8,128 571.7,129.8 	"/>
	<polyline class="st116" points="571.7,132.2 569.8,134 568,132.2 	"/>
	<path class="st115" d="M473.8,143h100.5c0.7,0,1.2,0.6,1.2,1.2v9.5c0,0.7-0.6,1.2-1.2,1.2H473.8c-0.7,0-1.2-0.6-1.2-1.2v-9.5
		C472.5,143.6,473.1,143,473.8,143z"/>
</g>
<g id="spec-1">
	<rect x="181.6" y="66.5" class="st111" width="262.5" height="23"/>
	<line class="st5" x1="181" y1="90" x2="445" y2="90"/>
	<path class="st5" d="M347,72h91c1.1,0,2,0.9,2,2v9c0,1.1-0.9,2-2,2h-91c-1.1,0-2-0.9-2-2v-9C345,72.9,345.9,72,347,72z"/>
	<path class="st5" d="M268.2,72h16c1.1,0,2,0.9,2,2v9c0,1.1-0.9,2-2,2h-16c-1.1,0-2-0.9-2-2v-9C266.2,72.9,267.1,72,268.2,72z"/>
	<path class="st5" d="M230,72h12c1.1,0,2,0.9,2,2v9c0,1.1-0.9,2-2,2h-12c-1.1,0-2-0.9-2-2v-9C228,72.9,228.9,72,230,72z"/>
	<path class="st5" d="M246,72h12c1.1,0,2,0.9,2,2v9c0,1.1-0.9,2-2,2h-12c-1.1,0-2-0.9-2-2v-9C244,72.9,244.9,72,246,72z"/>
	<circle class="st112" cx="204.9" cy="78.6" r="3.5"/>
	<circle class="st112" cx="192.8" cy="78.6" r="3.5"/>
	<circle class="st112" cx="216.9" cy="78.6" r="3.5"/>
	<path class="st117" d="M246,105h140c1.1,0,2,0.9,2,2v7c0,1.1-0.9,2-2,2H246c-1.1,0-2-0.9-2-2v-7C244,105.9,244.9,105,246,105z"/>
	<path class="st5" d="M246,105h140c1.1,0,2,0.9,2,2v7c0,1.1-0.9,2-2,2H246c-1.1,0-2-0.9-2-2v-7C244,105.9,244.9,105,246,105z"/>
	<g>
		<defs>
			<path id="SVGID_4_" d="M427.8,110H388v3.8c0,1.1-0.9,2.1-2.1,2.1H246.1c-1.1,0-2.1-0.9-2.1-2.1V110h-45.8c-2.6,0-4.7,2.1-4.7,4.7
				v113.5c0,2.6,2.1,4.7,4.7,4.7h229.5c2.6,0,4.7-2.1,4.7-4.7V114.7C432.5,112.1,430.4,110,427.8,110z"/>
		</defs>
		<clipPath id="SVGID_5_">
			<use xlink:href="#SVGID_4_"  style="overflow:visible;"/>
		</clipPath>
		<g class="st118">
			<line class="st5" x1="-16" y1="267.9" x2="322.4" y2="-68.6"/>
			<line class="st11" x1="-12.1" y1="268.1" x2="326.2" y2="-68.4"/>
			<line class="st12" x1="-8.3" y1="268.4" x2="330.1" y2="-68.2"/>
			<line class="st13" x1="-4.5" y1="268.6" x2="333.9" y2="-67.9"/>
			<line class="st14" x1="-0.7" y1="268.8" x2="337.7" y2="-67.7"/>
			<line class="st15" x1="3.1" y1="269.1" x2="341.5" y2="-67.4"/>
			<line class="st16" x1="6.9" y1="269.3" x2="345.3" y2="-67.2"/>
			<line class="st17" x1="10.7" y1="269.5" x2="349.1" y2="-67"/>
			<line class="st18" x1="14.6" y1="269.8" x2="353" y2="-66.8"/>
			<line class="st19" x1="18.4" y1="270" x2="356.8" y2="-66.5"/>
			<line class="st20" x1="22.2" y1="270.2" x2="360.6" y2="-66.3"/>
			<line class="st21" x1="26" y1="270.5" x2="364.4" y2="-66.1"/>
			<line class="st22" x1="29.8" y1="270.7" x2="368.2" y2="-65.8"/>
			<line class="st23" x1="33.6" y1="270.9" x2="372" y2="-65.6"/>
			<line class="st24" x1="37.4" y1="271.2" x2="375.8" y2="-65.3"/>
			<line class="st25" x1="41.3" y1="271.4" x2="379.7" y2="-65.1"/>
			<line class="st26" x1="45.1" y1="271.6" x2="383.5" y2="-64.9"/>
			<line class="st27" x1="48.9" y1="271.9" x2="387.3" y2="-64.7"/>
			<line class="st28" x1="52.7" y1="272.1" x2="391.1" y2="-64.4"/>
			<line class="st29" x1="56.5" y1="272.3" x2="394.9" y2="-64.2"/>
			<line class="st30" x1="60.3" y1="272.6" x2="398.7" y2="-64"/>
			<line class="st31" x1="64.1" y1="272.8" x2="402.5" y2="-63.7"/>
			<line class="st32" x1="68" y1="273" x2="406.4" y2="-63.5"/>
			<line class="st33" x1="71.8" y1="273.3" x2="410.2" y2="-63.2"/>
			<line class="st34" x1="75.6" y1="273.5" x2="414" y2="-63"/>
			<line class="st35" x1="79.4" y1="273.7" x2="417.8" y2="-62.8"/>
			<line class="st36" x1="83.2" y1="274" x2="421.6" y2="-62.5"/>
			<line class="st37" x1="87" y1="274.2" x2="425.4" y2="-62.3"/>
			<line class="st38" x1="90.8" y1="274.4" x2="429.2" y2="-62.1"/>
			<line class="st39" x1="94.7" y1="274.6" x2="433.1" y2="-61.9"/>
			<line class="st40" x1="98.5" y1="274.9" x2="436.9" y2="-61.6"/>
			<line class="st41" x1="102.3" y1="275.1" x2="440.7" y2="-61.4"/>
			<line class="st42" x1="106.1" y1="275.4" x2="444.5" y2="-61.2"/>
			<line class="st43" x1="109.9" y1="275.6" x2="448.3" y2="-60.9"/>
			<line class="st44" x1="113.7" y1="275.8" x2="452.1" y2="-60.7"/>
			<line class="st45" x1="117.6" y1="276" x2="456" y2="-60.5"/>
			<line class="st46" x1="121.4" y1="276.3" x2="459.8" y2="-60.2"/>
			<line class="st47" x1="125.2" y1="276.5" x2="463.6" y2="-60"/>
			<line class="st48" x1="129" y1="276.8" x2="467.4" y2="-59.8"/>
			<line class="st49" x1="132.8" y1="277" x2="471.2" y2="-59.5"/>
			<line class="st50" x1="136.6" y1="277.2" x2="475" y2="-59.3"/>
			<line class="st51" x1="140.4" y1="277.5" x2="478.8" y2="-59.1"/>
			<line class="st52" x1="144.2" y1="277.7" x2="482.6" y2="-58.8"/>
			<line class="st53" x1="148.1" y1="277.9" x2="486.5" y2="-58.6"/>
			<line class="st54" x1="151.9" y1="278.1" x2="490.3" y2="-58.4"/>
			<line class="st55" x1="155.7" y1="278.4" x2="494.1" y2="-58.1"/>
			<line class="st56" x1="159.5" y1="278.6" x2="497.9" y2="-57.9"/>
			<line class="st57" x1="163.3" y1="278.9" x2="501.7" y2="-57.7"/>
			<line class="st58" x1="167.1" y1="279.1" x2="505.5" y2="-57.4"/>
			<line class="st59" x1="170.9" y1="279.3" x2="509.4" y2="-57.2"/>
			<line class="st60" x1="174.8" y1="279.5" x2="513.2" y2="-57"/>
			<line class="st60" x1="178.6" y1="279.8" x2="517" y2="-56.7"/>
			<line class="st61" x1="182.4" y1="280" x2="520.8" y2="-56.5"/>
			<line class="st62" x1="186.2" y1="280.2" x2="524.6" y2="-56.3"/>
			<line class="st63" x1="190" y1="280.5" x2="528.4" y2="-56"/>
			<line class="st64" x1="193.8" y1="280.7" x2="532.2" y2="-55.8"/>
			<line class="st65" x1="197.7" y1="281" x2="536.1" y2="-55.6"/>
			<line class="st66" x1="201.5" y1="281.2" x2="539.9" y2="-55.3"/>
			<line class="st67" x1="205.3" y1="281.4" x2="543.7" y2="-55.1"/>
			<line class="st68" x1="209.1" y1="281.6" x2="547.5" y2="-54.9"/>
			<line class="st69" x1="212.9" y1="281.9" x2="551.3" y2="-54.6"/>
			<line class="st70" x1="216.7" y1="282.1" x2="555.1" y2="-54.4"/>
			<line class="st71" x1="220.5" y1="282.4" x2="559" y2="-54.2"/>
			<line class="st72" x1="224.4" y1="282.6" x2="562.8" y2="-53.9"/>
			<line class="st73" x1="228.2" y1="282.8" x2="566.6" y2="-53.7"/>
			<line class="st74" x1="232" y1="283" x2="570.4" y2="-53.5"/>
			<line class="st75" x1="235.8" y1="283.3" x2="574.2" y2="-53.2"/>
			<line class="st76" x1="239.6" y1="283.5" x2="578" y2="-53"/>
			<line class="st77" x1="243.4" y1="283.8" x2="581.8" y2="-52.8"/>
			<line class="st78" x1="247.2" y1="284" x2="585.7" y2="-52.5"/>
			<line class="st79" x1="251.1" y1="284.2" x2="589.5" y2="-52.3"/>
			<line class="st80" x1="254.9" y1="284.5" x2="593.3" y2="-52.1"/>
			<line class="st81" x1="258.7" y1="284.7" x2="597.1" y2="-51.8"/>
			<line class="st82" x1="262.5" y1="284.9" x2="600.9" y2="-51.6"/>
			<line class="st83" x1="266.3" y1="285.1" x2="604.7" y2="-51.4"/>
			<line class="st84" x1="270.1" y1="285.4" x2="608.5" y2="-51.1"/>
			<line class="st85" x1="274" y1="285.6" x2="612.3" y2="-50.9"/>
			<line class="st86" x1="277.8" y1="285.9" x2="616.2" y2="-50.7"/>
			<line class="st87" x1="281.6" y1="286.1" x2="620" y2="-50.4"/>
			<line class="st88" x1="285.4" y1="286.3" x2="623.8" y2="-50.2"/>
			<line class="st89" x1="289.2" y1="286.5" x2="627.6" y2="-50"/>
			<line class="st90" x1="293" y1="286.8" x2="631.4" y2="-49.7"/>
			<line class="st91" x1="296.8" y1="287" x2="635.2" y2="-49.5"/>
			<line class="st92" x1="300.6" y1="287.2" x2="639" y2="-49.3"/>
			<line class="st93" x1="304.5" y1="287.5" x2="642.9" y2="-49"/>
			<line class="st94" x1="308.3" y1="287.7" x2="646.7" y2="-48.8"/>
			<line class="st95" x1="312.1" y1="288" x2="650.5" y2="-48.6"/>
			<line class="st96" x1="315.9" y1="288.2" x2="654.3" y2="-48.3"/>
			<line class="st97" x1="319.7" y1="288.4" x2="658.1" y2="-48.1"/>
			<line class="st98" x1="323.5" y1="288.6" x2="661.9" y2="-47.9"/>
			<line class="st99" x1="327.4" y1="288.9" x2="665.8" y2="-47.6"/>
			<line class="st100" x1="331.2" y1="289.1" x2="669.6" y2="-47.4"/>
			<line class="st101" x1="335" y1="289.4" x2="673.4" y2="-47.2"/>
			<line class="st102" x1="338.8" y1="289.6" x2="677.2" y2="-46.9"/>
			<line class="st103" x1="342.6" y1="289.8" x2="681" y2="-46.7"/>
			<line class="st104" x1="346.4" y1="290" x2="684.8" y2="-46.5"/>
			<line class="st105" x1="350.2" y1="290.3" x2="688.6" y2="-46.2"/>
			<line class="st106" x1="354.1" y1="290.5" x2="692.5" y2="-46"/>
			<line class="st107" x1="357.9" y1="290.8" x2="696.3" y2="-45.8"/>
			<line class="st108" x1="361.7" y1="291" x2="700.1" y2="-45.5"/>
			<line class="st109" x1="365.5" y1="291.2" x2="703.9" y2="-45.3"/>
			<line class="st110" x1="369.3" y1="291.5" x2="707.7" y2="-45.1"/>
		</g>
	</g>
	<path class="st5" d="M427.8,110H388v3.8c0,1.1-0.9,2.1-2.1,2.1H246.1c-1.1,0-2.1-0.9-2.1-2.1V110h-45.8c-2.6,0-4.7,2.1-4.7,4.7
		v113.5c0,2.6,2.1,4.7,4.7,4.7h229.5c2.6,0,4.7-2.1,4.7-4.7V114.7C432.5,112.1,430.4,110,427.8,110z"/>
	<line class="st5" x1="292" y1="105" x2="292" y2="116"/>
	<line class="st5" x1="338" y1="105" x2="338" y2="116"/>
	<line class="st5" x1="181" y1="60.6" x2="181" y2="62.6"/>
	<line class="st119" x1="181" y1="64.6" x2="181" y2="250.2"/>
	<line class="st5" x1="181" y1="251.2" x2="181" y2="253.2"/>
	<line class="st5" x1="444.6" y1="60.6" x2="444.6" y2="62.6"/>
	<line class="st120" x1="444.6" y1="64.6" x2="444.6" y2="250.4"/>
	<line class="st5" x1="444.6" y1="251.4" x2="444.6" y2="253.4"/>
	<line class="st5" x1="451" y1="66" x2="449" y2="66"/>
	<line class="st121" x1="447" y1="66" x2="178" y2="66"/>
	<line class="st5" x1="177" y1="66" x2="175" y2="66"/>
	<line class="st5" x1="451" y1="247.1" x2="449" y2="247.1"/>
	<line class="st121" x1="447" y1="247.1" x2="178" y2="247.1"/>
	<line class="st5" x1="177" y1="247.1" x2="175" y2="247.1"/>
	<line class="st5" x1="287" y1="66.5" x2="287" y2="52.5"/>
	<line class="st5" x1="345" y1="52.5" x2="345" y2="66.5"/>
	<line class="st5" x1="292.4" y1="56" x2="339.6" y2="56"/>
	<polygon class="st113" points="293.4,57.5 288,56 293.4,54.5 	"/>
	<polygon class="st113" points="338.6,57.5 344,56 338.6,54.5 	"/>
	<polygon class="st113" points="444,261.6 444,250 452.4,258.5 447.3,258.5 447.2,258.5 	"/>
	<polygon class="st111" points="444.7,251.8 444.7,259.9 446.9,257.8 447,257.7 450.7,257.7 	"/>
</g>
<g id="menuBar">
	<rect x="159.5" y="26.5" class="st111" width="451" height="9"/>
	<path class="st122" d="M203.5,29h6c0.3,0,0.5,0.2,0.5,0.5v3c0,0.3-0.2,0.5-0.5,0.5h-6c-0.3,0-0.5-0.2-0.5-0.5v-3
		C203,29.2,203.2,29,203.5,29z"/>
	<path class="st122" d="M177,29h18c0.3,0,0.5,0.2,0.5,0.5v3c0,0.3-0.2,0.5-0.5,0.5h-18c-0.3,0-0.5-0.2-0.5-0.5v-3
		C176.5,29.2,176.7,29,177,29z"/>
	<path class="st122" d="M167,29L167,29c1.1,0,2,0.9,2,2l0,0c0,1.1-0.9,2-2,2l0,0c-1.1,0-2-0.9-2-2l0,0C165,29.9,165.9,29,167,29z"/>
	<path class="st122" d="M550,29h25c0.3,0,0.5,0.2,0.5,0.5v3c0,0.3-0.2,0.5-0.5,0.5h-25c-0.3,0-0.5-0.2-0.5-0.5v-3
		C549.5,29.2,549.7,29,550,29z"/>
	<path class="st122" d="M582,29h3c0.3,0,0.5,0.2,0.5,0.5v3c0,0.3-0.2,0.5-0.5,0.5h-3c-0.3,0-0.5-0.2-0.5-0.5v-3
		C581.5,29.2,581.7,29,582,29z"/>
	<path class="st122" d="M539,29h6c0.3,0,0.5,0.2,0.5,0.5v3c0,0.3-0.2,0.5-0.5,0.5h-6c-0.3,0-0.5-0.2-0.5-0.5v-3
		C538.5,29.2,538.7,29,539,29z"/>
	<path class="st122" d="M598,29h6c0.3,0,0.5,0.2,0.5,0.5v3c0,0.3-0.2,0.5-0.5,0.5h-6c-0.3,0-0.5-0.2-0.5-0.5v-3
		C597.5,29.2,597.7,29,598,29z"/>
	<path class="st122" d="M216.5,29h6c0.3,0,0.5,0.2,0.5,0.5v3c0,0.3-0.2,0.5-0.5,0.5h-6c-0.3,0-0.5-0.2-0.5-0.5v-3
		C216,29.2,216.2,29,216.5,29z"/>
	<path class="st122" d="M230.5,29h7.5c0.3,0,0.5,0.2,0.5,0.5v3c0,0.3-0.2,0.5-0.5,0.5h-7.5c-0.3,0-0.5-0.2-0.5-0.5v-3
		C230,29.2,230.2,29,230.5,29z"/>
	<path class="st122" d="M245.5,29h5.5c0.3,0,0.5,0.2,0.5,0.5v3c0,0.3-0.2,0.5-0.5,0.5h-5.5c-0.3,0-0.5-0.2-0.5-0.5v-3
		C245,29.2,245.2,29,245.5,29z"/>
	<circle class="st122" cx="592" cy="31" r="2"/>
</g>
<g id="dock">
	<path class="st111" d="M264,309.5v-33.4c0-1.2,0.9-2.1,2.1-2.1c0,0,0,0,0,0h244.8c1.2,0,2.1,1,2.1,2.1c0,0,0,0,0,0v33.4"/>
	<rect x="277" y="281.7" class="st122" width="20" height="20"/>
	<path class="st122" d="M315.8,281.7h0.4c5.4,0,9.8,4.4,9.8,9.8v0.4c0,5.4-4.4,9.8-9.8,9.8h-0.4c-5.4,0-9.8-4.4-9.8-9.8v-0.4
		C306,286.1,310.4,281.7,315.8,281.7z"/>
	<path class="st122" d="M341.1,281.7h0.4c5.4,0,9.8,4.4,9.8,9.8v0.4c0,5.4-4.4,9.8-9.8,9.8h-0.4c-5.4,0-9.8-4.4-9.8-9.8v-0.4
		C331.3,286.1,335.7,281.7,341.1,281.7z"/>
	<path class="st122" d="M367,281.7h0.4c5.4,0,9.8,4.4,9.8,9.8v0.4c0,5.4-4.4,9.8-9.8,9.8H367c-5.4,0-9.8-4.4-9.8-9.8v-0.4
		C357.3,286.1,361.6,281.7,367,281.7z"/>
	<circle class="st122" cx="287" cy="306" r="1"/>
	<circle class="st122" cx="427" cy="306" r="1"/>
	
		<rect x="384.6" y="281.7" transform="matrix(0.9877 -0.1564 0.1564 0.9877 -40.7193 65.2539)" class="st122" width="19.2" height="19.2"/>
	<line class="st5" x1="449" y1="304" x2="449" y2="280"/>
	<path class="st122" d="M489.4,297.7c0,1.8,3,3.3,6.7,3.3s6.7-1.5,6.7-3.3l1.8-15.9h-17L489.4,297.7z"/>
	<ellipse class="st122" cx="496.1" cy="281.8" rx="8.5" ry="2.8"/>
	<path class="st122" d="M480.6,284.6h-13.7l-1.1-1.3c-0.2-0.2-0.4-0.3-0.6-0.3h-5.5c-0.3,0-0.6,0.2-0.7,0.4l-0.6,1.1v15.6
		c0,0.4,0.4,0.8,0.8,0.8c0,0,0,0,0,0h21.4c0.4,0,0.8-0.3,0.8-0.8c0,0,0,0,0,0v-14.9C481.4,284.9,481,284.6,480.6,284.6
		C480.6,284.6,480.6,284.6,480.6,284.6z"/>
	<line class="st123" x1="415.7" y1="280.9" x2="419.5" y2="304.7"/>
	<line class="st123" x1="431.5" y1="278.4" x2="435.3" y2="302.2"/>
	<line class="st123" x1="435.7" y1="279.3" x2="412.5" y2="283"/>
	<line class="st123" x1="438.8" y1="299" x2="415.6" y2="302.7"/>
	
		<rect x="417.9" y="281.5" transform="matrix(0.9877 -0.1564 0.1564 0.9877 -40.292 70.134)" class="st122" width="15" height="19"/>
</g>
</svg>
