<svg id="devices" xmlns="http://www.w3.org/2000/svg" width="234" height="139" viewBox="0 0 234 139"><defs><style>.cls-1{fill:#fafafa;opacity:0;}.cls-2,.cls-3{fill:none;}.cls-3,.cls-4{stroke:#8c8c8c;stroke-miterlimit:10;}.cls-4{fill:#e1e1e1;}</style></defs><title>splitViews</title><rect class="cls-1" width="234" height="139"/><path class="cls-2" d="M212.79,129.42a6.21,6.21,0,0,0,.49-2.43V7.22A6.22,6.22,0,0,0,207.07,1H26.95a6.22,6.22,0,0,0-6.21,6.22V127a6.21,6.21,0,0,0,.49,2.43H.5v5A26.07,26.07,0,0,0,10.87,137H223.12a26.11,26.11,0,0,0,10.38-2.51v-5Z"/><path class="cls-3" d="M223.12,137.33a23.66,23.66,0,0,0,10.38-2.86v-5.05H.5v5.05a23.62,23.62,0,0,0,10.37,2.86Z"/><path class="cls-3" d="M21.23,129.42H212.79a6.21,6.21,0,0,0,.49-2.43V7.22A6.22,6.22,0,0,0,207.07,1H26.95a6.22,6.22,0,0,0-6.21,6.22V127A6.21,6.21,0,0,0,21.23,129.42Z"/><rect class="cls-4" x="27.58" y="9.08" width="178.53" height="112.54"/><rect class="cls-4" x="27.58" y="89.76" width="178.53" height="31.86"/><path class="cls-3" d="M98.1,129.42h38.69a0,0,0,0,1,0,0v0a3.52,3.52,0,0,1-3.52,3.52H101.61a3.52,3.52,0,0,1-3.52-3.52v0a0,0,0,0,1,0,0Z"/></svg>